<svg xmlns="http://www.w3.org/2000/svg" viewBox="0 0 200 200" width="200" height="200">
  <rect width="200" height="200" rx="24" fill="#1a1a2e"/>
  <!-- Center person (larger) -->
  <circle cx="100" cy="58" r="14" fill="none" stroke="#c5a572" stroke-width="3.5"/>
  <path d="M72 105 Q72 82 100 78 Q128 82 128 105" fill="none" stroke="#c5a572" stroke-width="3.5" stroke-linecap="round"/>
  <!-- Left person -->
  <circle cx="52" cy="70" r="11" fill="none" stroke="#c5a572" stroke-width="3" opacity="0.7"/>
  <path d="M30 108 Q30 90 52 87 Q68 90 68 100" fill="none" stroke="#c5a572" stroke-width="3" stroke-linecap="round" opacity="0.7"/>
  <!-- Right person -->
  <circle cx="148" cy="70" r="11" fill="none" stroke="#c5a572" stroke-width="3" opacity="0.7"/>
  <path d="M132 100 Q132 90 148 87 Q170 90 170 108" fill="none" stroke="#c5a572" stroke-width="3" stroke-linecap="round" opacity="0.7"/>
  <!-- Houses row -->
  <!-- House 1 (left) -->
  <path d="M32 140 L52 122 L72 140" fill="none" stroke="#c5a572" stroke-width="2.5" stroke-linejoin="round"/>
  <rect x="38" y="138" width="28" height="22" rx="2" fill="none" stroke="#c5a572" stroke-width="2.5"/>
  <rect x="47" y="146" width="10" height="14" rx="1" fill="#c5a572" opacity="0.3"/>
  <!-- House 2 (center) -->
  <path d="M74 138 L100 118 L126 138" fill="none" stroke="#c5a572" stroke-width="2.5" stroke-linejoin="round"/>
  <rect x="80" y="136" width="40" height="26" rx="2" fill="none" stroke="#c5a572" stroke-width="2.5"/>
  <rect x="93" y="144" width="14" height="18" rx="1" fill="#c5a572" opacity="0.3"/>
  <!-- House 3 (right) -->
  <path d="M128 140 L148 122 L168 140" fill="none" stroke="#c5a572" stroke-width="2.5" stroke-linejoin="round"/>
  <rect x="134" y="138" width="28" height="22" rx="2" fill="none" stroke="#c5a572" stroke-width="2.5"/>
  <rect x="143" y="146" width="10" height="14" rx="1" fill="#c5a572" opacity="0.3"/>
  <!-- Connection dots between people -->
  <circle cx="75" cy="72" r="1.5" fill="#c5a572" opacity="0.4"/>
  <circle cx="125" cy="72" r="1.5" fill="#c5a572" opacity="0.4"/>
</svg>